<svg xmlns="http://www.w3.org/2000/svg" viewBox="0 0 512 512">
  <defs>
    <linearGradient id="icon512Grad" x1="0%" y1="0%" x2="100%" y2="100%">
      <stop offset="0%" style="stop-color:#4F46E5;stop-opacity:1" />
      <stop offset="100%" style="stop-color:#7C3AED;stop-opacity:1" />
    </linearGradient>
  </defs>
  
  <!-- Background -->
  <rect width="512" height="512" fill="#FFFFFF" rx="85"/>
  
  <!-- Symbol centered and scaled -->
  <g transform="translate(56, 56)">
    <!-- Outer circle -->
    <circle cx="200" cy="200" r="190" fill="none" stroke="url(#icon512Grad)" stroke-width="6"/>
    
    <!-- Crown/Prime symbol -->
    <path d="M 140 160 L 200 100 L 260 160 L 260 120 L 200 60 L 140 120 Z" fill="url(#icon512Grad)"/>
    
    <!-- Letter D -->
    <path d="M 120 200 L 120 280 L 160 280 Q 200 280 200 240 Q 200 200 160 200 Z" fill="url(#icon512Grad)"/>
    
    <!-- Letter P -->
    <path d="M 220 200 L 220 280 M 220 200 L 260 200 Q 280 200 280 220 Q 280 240 260 240 L 220 240" 
          fill="none" stroke="url(#icon512Grad)" stroke-width="12" stroke-linecap="round" stroke-linejoin="round"/>
    
    <!-- Tech accent lines -->
    <line x1="100" y1="200" x2="80" y2="200" stroke="url(#icon512Grad)" stroke-width="4"/>
    <line x1="300" y1="200" x2="320" y2="200" stroke="url(#icon512Grad)" stroke-width="4"/>
    <line x1="200" y1="100" x2="200" y2="80" stroke="url(#icon512Grad)" stroke-width="4"/>
    <line x1="200" y1="300" x2="200" y2="320" stroke="url(#icon512Grad)" stroke-width="4"/>
  </g>
</svg>
